<svg xmlns="http://www.w3.org/2000/svg" width="16" height="16" viewBox="0 0 16 16">
  <path id="Path_98" data-name="Path 98" d="M546.207,332.684l5.634-12.3a2.2,2.2,0,0,1,2.078-1.361h.208a2.166,2.166,0,0,1,2.055,1.361l5.633,12.3a1.634,1.634,0,0,1,.185.692,1.657,1.657,0,0,1-1.686,1.652,1.808,1.808,0,0,1-1.709-1.183l-1.085-2.454H550.41l-1.131,2.566a1.747,1.747,0,0,1-1.639,1.071A1.608,1.608,0,0,1,546,333.42a1.778,1.778,0,0,1,.207-.736Zm10-4.329-2.24-5.155-2.24,5.155Zm0,0" transform="translate(-546 -319.027)" fill="#ea5050"/>
</svg>
