<svg xmlns="http://www.w3.org/2000/svg" width="18.5" height="18.5" viewBox="0 0 18.5 18.5">
  <g id="Group_1" data-name="Group 1" transform="translate(-323.465 -413.434)">
    <path id="Path_1" data-name="Path 1" d="M333.878,422.543l-1.023-1.023a4,4,0,0,0-.577-4.926l-1.74-1.74a4,4,0,0,0-5.655,5.654l1.74,1.74a4,4,0,0,0,4.927.576l1.023,1.023a4,4,0,0,0,.576,4.925l1.74,1.74a4,4,0,1,0,5.655-5.654l-1.74-1.74a4.005,4.005,0,0,0-4.926-.575Zm-4.427-.969a2.139,2.139,0,0,1-1.523-.631l-1.74-1.74a2.153,2.153,0,0,1,3.045-3.045l1.74,1.74a2.155,2.155,0,0,1,.505,2.245l-.94-.94a.923.923,0,1,0-1.305,1.3l.941.941a2.159,2.159,0,0,1-.724.124Zm9.787,7.633a2.156,2.156,0,0,1-3.045,0l-1.74-1.74a2.155,2.155,0,0,1-.505-2.245l.94.94a.923.923,0,1,0,1.3-1.3l-.94-.94a2.159,2.159,0,0,1,2.245.505l1.74,1.74a2.155,2.155,0,0,1,0,3.045Zm0,0" fill="#ea5050" stroke="#ea5050" stroke-width="0.5"/>
  </g>
</svg>
